<svg xmlns="http://www.w3.org/2000/svg" viewBox="0 0 512 512">
  <defs>
    <linearGradient id="bg" x1="0" y1="0" x2="0" y2="1">
      <stop offset="0" stop-color="#3a2440"/>
      <stop offset="1" stop-color="#150d1e"/>
    </linearGradient>
    <radialGradient id="iris" cx="50%" cy="42%" r="62%">
      <stop offset="0%" stop-color="#eafffa"/>
      <stop offset="35%" stop-color="#5ce1e6"/>
      <stop offset="75%" stop-color="#1f8a8f"/>
      <stop offset="100%" stop-color="#0d3d40"/>
    </radialGradient>
  </defs>
  <rect width="512" height="512" rx="112" fill="url(#bg)"/>
  <!-- orbiting ender particles -->
  <g stroke="#0a0611" stroke-width="8" fill="#5ce1e6">
    <rect x="232" y="48" width="48" height="48" transform="rotate(45 256 256)"/>
    <rect x="232" y="48" width="48" height="48" transform="rotate(135 256 256)" fill="#b980f0"/>
    <rect x="232" y="48" width="48" height="48" transform="rotate(225 256 256)"/>
    <rect x="232" y="48" width="48" height="48" transform="rotate(315 256 256)" fill="#b980f0"/>
  </g>
  <!-- the Eye of Ender -->
  <ellipse cx="256" cy="268" rx="150" ry="128" fill="#140b1c" stroke="#0a0611" stroke-width="22"/>
  <circle cx="256" cy="268" r="74" fill="url(#iris)" stroke="#0d3d40" stroke-width="10"/>
  <path d="M256 210 C242 228 242 308 256 336 C270 308 270 228 256 210 Z" fill="#08181a"/>
  <ellipse cx="280" cy="240" rx="16" ry="21" fill="#ffffff" opacity="0.85"/>
</svg>
